<svg width="512" height="512" viewBox="0 0 1024 1024" fill="none" xmlns="http://www.w3.org/2000/svg">
  <defs>
    <filter id="f1" x="-20%" y="-20%" width="140%" height="140%">
      <feDropShadow dx="0" dy="5" stdDeviation="15" flood-color="#000" flood-opacity="0.2"/>
    </filter>
  </defs>
  
  <g filter="url(#f1)">
    <!-- Phone Handset Icon (Blue Gradient Fill for white background or White for colored)
         Since splash screen often has white background, let's make the icon the Gradient color.
         Or if splash background is the gradient, icon is white.
         Let's assume splash background is white for now, so icon is Gradient.
    -->
    <defs>
      <linearGradient id="grad2" x1="0%" y1="0%" x2="100%" y2="100%">
        <stop offset="0%" style="stop-color:#4facfe;stop-opacity:1" />
        <stop offset="100%" style="stop-color:#00f2fe;stop-opacity:1" />
      </linearGradient>
    </defs>
    <path d="M725.333 659.2C684.8 659.2 646.4 652.8 610.133 640C597.333 635.733 582.4 637.867 573.867 646.4L514.133 721.067C439.467 682.667 377.6 620.8 341.333 546.133L413.867 486.4C422.4 477.867 426.667 462.933 422.4 450.133C409.6 413.867 403.2 375.467 403.2 334.933C403.2 315.733 387.467 300.8 370.133 300.8H263.467C245.333 300.8 229.333 315.733 229.333 334.933C229.333 629.333 468.267 868.267 762.667 868.267C781.867 868.267 796.8 852.267 796.8 834.133V727.467C796.8 709.333 781.867 693.333 762.667 693.333H725.333Z" fill="url(#grad2)"/>
  </g>
</svg>
